<svg id="Layer_1" data-name="Layer 1" xmlns="http://www.w3.org/2000/svg" viewBox="0 0 149.41 84.03"><path d="M0,43.16C0,54.75,8.14,62.38,20.52,62.38s20.59-8.06,20.59-19.22-8.13-19-20.59-19S0,31.57,0,43.16Zm9.36,0c0-5.91,3.17-10.51,11.16-10.51s11.23,4.6,11.23,10.51S28.51,53.89,20.52,53.89,9.36,49.06,9.36,43.16ZM46.65,19.83h9.57v-9H46.65Zm.5,41.4h8.71v-36H47.15ZM76.54,27.1c-2.3,1.8-3.31,5.69-4.39,8.43l-1.51-.65c1.08-2.74,2.52-6.19,2.52-9.07v-.58H64.37v36h8.79V42.87c0-6.91,4.89-10,10.65-10,5.26,0,7.78,3.1,7.78,10V61.23h8.85V36.53c0-8.2-5.68-12.38-13-12.38C82.73,24.15,79.57,24.73,76.54,27.1Zm37.82,22c0,5.76,2.3,12.1,9.07,12.1h8.71V53H127.9c-3.39,0-4.76-.86-4.76-3.89V32.93h9.36v-7.7h-9.36V11.62h-8.78V25.23h-7.2v7.7h7.2Z"/><path d="M10.3,77.84A3.75,3.75,0,0,1,10,79.38a3.37,3.37,0,0,1-.8,1.12,3.47,3.47,0,0,1-1.16.69,3.85,3.85,0,0,1-1.36.24,4,4,0,0,1-1.37-.24,3.64,3.64,0,0,1-1.15-.69,3.52,3.52,0,0,1-.8-1.12,3.92,3.92,0,0,1-.29-1.54v-.17a3.8,3.8,0,0,1,.29-1.51A3.45,3.45,0,0,1,4.17,75a3.49,3.49,0,0,1,1.15-.7,4,4,0,0,1,1.37-.24,3.85,3.85,0,0,1,1.36.24,3.35,3.35,0,0,1,2,1.83,3.63,3.63,0,0,1,.29,1.51ZM6.69,79.75a2.18,2.18,0,0,0,.72-.13A1.58,1.58,0,0,0,8,79.26a1.72,1.72,0,0,0,.4-.58,1.94,1.94,0,0,0,.15-.78v-.28a1.86,1.86,0,0,0-.15-.77,1.67,1.67,0,0,0-.4-.59,1.58,1.58,0,0,0-.58-.36,2,2,0,0,0-.72-.13A1.87,1.87,0,0,0,6,75.9a1.62,1.62,0,0,0-.59.36,1.83,1.83,0,0,0-.41.59,2,2,0,0,0-.14.77v.28a2.13,2.13,0,0,0,.14.78,1.9,1.9,0,0,0,.41.58,1.62,1.62,0,0,0,.59.36A2.08,2.08,0,0,0,6.69,79.75ZM13.75,84H12V74.29h1.76v1H14a2.05,2.05,0,0,1,.82-.88,2.59,2.59,0,0,1,1.35-.32,2.92,2.92,0,0,1,1.17.24,2.65,2.65,0,0,1,1,.7,3.16,3.16,0,0,1,.66,1.1,4.14,4.14,0,0,1,.25,1.5v.25A4.45,4.45,0,0,1,19,79.4a3.42,3.42,0,0,1-.64,1.12,2.66,2.66,0,0,1-1,.68,3.08,3.08,0,0,1-1.19.23,3.28,3.28,0,0,1-.82-.1,2.52,2.52,0,0,1-.62-.27,2,2,0,0,1-.43-.38,4.53,4.53,0,0,1-.3-.46h-.25Zm1.85-4.28a1.79,1.79,0,0,0,1.33-.51,1.86,1.86,0,0,0,.52-1.4v-.17a1.82,1.82,0,0,0-.52-1.38,1.76,1.76,0,0,0-1.33-.52,1.79,1.79,0,0,0-1.34.53,1.89,1.89,0,0,0-.51,1.37v.17a1.94,1.94,0,0,0,.51,1.39A1.82,1.82,0,0,0,15.6,79.75Zm7.16-1.42a1.59,1.59,0,0,0,.14.58,1.66,1.66,0,0,0,.36.44,2.5,2.5,0,0,0,.53.3,2.32,2.32,0,0,0,.65.1,1.89,1.89,0,0,0,1-.23A1.4,1.4,0,0,0,26,79l1.51.84a2.69,2.69,0,0,1-.35.56,2.34,2.34,0,0,1-.59.52,3,3,0,0,1-.86.39,3.9,3.9,0,0,1-1.19.16A3.83,3.83,0,0,1,23,81.17a3.22,3.22,0,0,1-1.12-.72,3.47,3.47,0,0,1-.73-1.17,4.38,4.38,0,0,1-.25-1.55v-.08a4,4,0,0,1,.26-1.46A3.41,3.41,0,0,1,22,75.07a3.24,3.24,0,0,1,1.11-.71,3.74,3.74,0,0,1,2.91,0,3.19,3.19,0,0,1,1.06.8,3.08,3.08,0,0,1,.62,1.06,3.51,3.51,0,0,1,.19,1.12v.94Zm1.66-2.64a1.62,1.62,0,0,0-1.09.35,1.47,1.47,0,0,0-.54.78h3.27a1.19,1.19,0,0,0-.53-.81A1.78,1.78,0,0,0,24.42,75.69Zm7.4,5.54H30.06V74.29h1.76v1h.25a1.91,1.91,0,0,1,.77-.91,2.42,2.42,0,0,1,1.25-.32,2.66,2.66,0,0,1,.94.17,2,2,0,0,1,.78.49,2.14,2.14,0,0,1,.52.85,3.53,3.53,0,0,1,.19,1.23v4.4H34.76v-4a1.73,1.73,0,0,0-.36-1.16,1.25,1.25,0,0,0-1-.43,1.35,1.35,0,0,0-1.18.53,2.33,2.33,0,0,0-.38,1.4Zm16.07-1.68h2.35V76H48.05V74.29h4v5.26h2v1.68H47.89Zm4.55-7.32a1.21,1.21,0,0,1-.12.53,1.07,1.07,0,0,1-.28.42,1.45,1.45,0,0,1-.43.28,1.21,1.21,0,0,1-.5.1,1.27,1.27,0,0,1-.52-.1,1.54,1.54,0,0,1-.42-.28,1.37,1.37,0,0,1-.29-.42,1.35,1.35,0,0,1-.1-.53,1.27,1.27,0,0,1,.1-.52,1.17,1.17,0,0,1,.29-.42,1.34,1.34,0,0,1,.42-.28,1.27,1.27,0,0,1,.52-.11,1.22,1.22,0,0,1,.5.11,1.28,1.28,0,0,1,.43.28.94.94,0,0,1,.28.42A1.14,1.14,0,0,1,52.44,72.23Zm5.94,9H56.61V74.29h1.77v1h.25a1.85,1.85,0,0,1,.77-.91,2.39,2.39,0,0,1,1.25-.32,2.6,2.6,0,0,1,.93.17,2,2,0,0,1,.79.49,2.4,2.4,0,0,1,.52.85,3.53,3.53,0,0,1,.19,1.23v4.4H61.32v-4A1.68,1.68,0,0,0,61,76.12a1.22,1.22,0,0,0-1-.43,1.34,1.34,0,0,0-1.17.53,2.26,2.26,0,0,0-.38,1.4Zm17.7,0H74.32V74.29h1.76v1h.25a1.91,1.91,0,0,1,.77-.91,2.42,2.42,0,0,1,1.25-.32,2.62,2.62,0,0,1,.94.17,1.88,1.88,0,0,1,.78.49,2.14,2.14,0,0,1,.52.85,3.52,3.52,0,0,1,.2,1.23v4.4H79v-4a1.73,1.73,0,0,0-.36-1.16,1.25,1.25,0,0,0-1-.43,1.35,1.35,0,0,0-1.18.53,2.33,2.33,0,0,0-.38,1.4Zm8.64-2.9a1.59,1.59,0,0,0,.14.58,1.92,1.92,0,0,0,.37.44,2.28,2.28,0,0,0,.53.3,2.31,2.31,0,0,0,.64.1,1.86,1.86,0,0,0,1-.23,1.42,1.42,0,0,0,.51-.56l1.51.84a3.19,3.19,0,0,1-.35.56,2.52,2.52,0,0,1-.59.52,2.92,2.92,0,0,1-.87.39,3.81,3.81,0,0,1-1.19.16A3.87,3.87,0,0,1,85,81.17a3.22,3.22,0,0,1-1.12-.72,3.45,3.45,0,0,1-.72-1.17,4.38,4.38,0,0,1-.26-1.55v-.08a3.8,3.8,0,0,1,.27-1.46,3.41,3.41,0,0,1,.76-1.12,3.11,3.11,0,0,1,1.1-.71,3.52,3.52,0,0,1,1.37-.27,3.47,3.47,0,0,1,1.54.32,3.23,3.23,0,0,1,1.07.8,3.05,3.05,0,0,1,.61,1.06,3.54,3.54,0,0,1,.2,1.12v.94Zm1.67-2.64A1.61,1.61,0,0,0,85.3,76a1.54,1.54,0,0,0-.55.78H88A1.26,1.26,0,0,0,87.5,76,1.78,1.78,0,0,0,86.39,75.69Zm12.44,5.54H95.77L95.38,76v-.84h-.33V76l-.4,5.26H91.6l-.46-6.94h1.62l.31,5.26v.84h.34v-.84l.35-5.26h2.91L97,79.55v.84h.34v-.84l.3-5.26h1.63Zm10.7-6.94h2.06V71.43h1.76v2.86h2.51V76h-2.51v3.16c0,.28.13.42.38.42h1.88v1.68h-2.94a1.06,1.06,0,0,1-.79-.31,1.09,1.09,0,0,1-.29-.78V76h-2.06Zm13.54,5.93a1.85,1.85,0,0,1-.78.94,2.48,2.48,0,0,1-1.18.27,3,3,0,0,1-1.19-.24,2.83,2.83,0,0,1-1-.7,3.37,3.37,0,0,1-.67-1.12,4.37,4.37,0,0,1-.24-1.5v-.22a4.35,4.35,0,0,1,.24-1.49,3.32,3.32,0,0,1,.64-1.12,2.78,2.78,0,0,1,2.1-1,2.42,2.42,0,0,1,1.19.25,1.76,1.76,0,0,1,.73.79h.25v-.84H125v4.84c0,.28.13.42.38.42h.27v1.68H124.4a1.1,1.1,0,0,1-.78-.28,1,1,0,0,1-.3-.73Zm-1.57-.47a1.59,1.59,0,0,0,1.24-.51,2.05,2.05,0,0,0,.46-1.4v-.17a2,2,0,0,0-.46-1.38,1.73,1.73,0,0,0-2.47,0,2,2,0,0,0-.46,1.38v.17a2,2,0,0,0,.46,1.4A1.58,1.58,0,0,0,121.5,79.75Zm7.4,1.48h-1.76v-9.8h1.76v3.86h.25a2.05,2.05,0,0,1,.82-.88,2.59,2.59,0,0,1,1.35-.32,2.92,2.92,0,0,1,1.17.24,2.65,2.65,0,0,1,1,.7,3.16,3.16,0,0,1,.66,1.1,4.14,4.14,0,0,1,.25,1.5v.25a4.45,4.45,0,0,1-.24,1.52,3.6,3.6,0,0,1-.64,1.12,2.66,2.66,0,0,1-1,.68,3.08,3.08,0,0,1-1.19.23,3.28,3.28,0,0,1-.82-.1,2.52,2.52,0,0,1-.62-.27,2,2,0,0,1-.43-.38,4.53,4.53,0,0,1-.3-.46h-.25Zm1.85-1.48a1.79,1.79,0,0,0,1.33-.51,1.9,1.9,0,0,0,.52-1.4v-.17a1.85,1.85,0,0,0-.52-1.38,1.76,1.76,0,0,0-1.33-.52,1.79,1.79,0,0,0-1.34.53,1.89,1.89,0,0,0-.51,1.37v.17a1.94,1.94,0,0,0,.51,1.39A1.82,1.82,0,0,0,130.75,79.75Z"/><path d="M133.12,0V2.93l13.21-.06V16.29h3.08V0Z"/><path d="M144.35,2.87,133.12,14.08v2.07h1.94l11.27-11V2.87Z"/></svg>