<svg id="Layer_1" data-name="Layer 1" xmlns="http://www.w3.org/2000/svg" viewBox="0 0 684.73 233.34"><path d="M159.43,494.7c0-45,22.6-72,62.4-72,39.6,0,61.8,27,61.8,72.6s-22.4,69.2-61.6,69.2C181.83,564.5,159.43,539.5,159.43,494.7Zm103-.2c0-33.6-14.4-52.8-40.8-52.8s-41,19.2-41,53.2c0,34.8,15.2,51.4,40.6,51.4C245.83,546.3,262.43,530.5,262.43,494.5Z" transform="translate(-159.43 -373.16)"/><path d="M294.23,449.7V425.5h20v24.2Zm0,110.2V461.5h20v98.4Z" transform="translate(-159.43 -373.16)"/><path d="M394.23,559.9V499.3c0-17.8-6.8-23.4-20.2-23.4-20,0-26.8,12.6-26.8,33v51h-20V461.5h19.2v19.6c5.8-15.2,18.4-22.2,34.4-22.2,19.4,0,33.4,10.4,33.4,34v67Z" transform="translate(-159.43 -373.16)"/><path d="M486.23,495.1h18.6v28c0,20.8-11.6,39.4-38.8,39.4-28,0-39.2-18.4-39.2-39.6v-88h19.8v26.6h58.2v14.4h-58.2v45.2c0,14.2,5.8,24,19.8,24,13.6,0,19.8-9.6,19.8-23.8Z" transform="translate(-159.43 -373.16)"/><path d="M554.23,559.9V445.1h-42v-18H617.62v18h-42V559.9Z" transform="translate(-159.43 -373.16)"/><path d="M674.22,559.9c-.6-1.8-1-11-1.2-13.4-5.19,8.8-16.19,16-34.19,16-22,0-32.2-10.6-32.2-28.8,0-25.8,20.4-29,44-32.2,14.21-2,21-3,21.8-10.2,0-10.6-7-16.8-21.39-16.8-15.41,0-21.6,7.4-22.6,19h-18.6c.4-20.4,11.2-34.6,42-34.6,30.59,0,41,14,41,38.8v62.2Zm-1.39-50.8c-3,3.4-11.41,4.2-22,5.8-15.8,2.6-24.21,6-24.21,18.2,0,9.8,5.61,15,17,15,16.6,0,28.4-10.8,29-24.8Z" transform="translate(-159.43 -373.16)"/><path d="M777.62,541.1c-4.4,14-17.2,19.6-31.6,19.6-29,0-42.6-22.6-42.6-50,0-32.4,19-51.8,43.2-51.8,13,0,25,5.6,31,20.4V461.5h20v99.4c0,29.6-21,45.6-47.8,45.6-26.6,0-46.4-15.8-46.4-41.2h18.8c0,15.2,11,24,26.4,24,16.2,0,29-10,29-26.8Zm.6-30.8c0-21.2-10-33.8-27.2-33.8-16.8,0-26.8,12-26.8,33.6,0,23,11.2,34.8,27,34.8C767.22,544.9,778.22,532.5,778.22,510.3Z" transform="translate(-159.43 -373.16)"/><polygon points="684.73 0 684.73 46.54 675.95 46.54 675.95 14.59 643.73 46.15 638.19 46.15 638.19 40.24 670.29 8.21 638.19 8.34 638.19 0 684.73 0"/></svg>